<svg id="Layer_1" data-name="Layer 1" xmlns="http://www.w3.org/2000/svg" viewBox="0 0 590.43 429"><defs><style>.cls-1{fill:#8bc242;}.cls-2{fill:#fff;}</style></defs><title>TechSmart Logo Stacked White</title><path class="cls-1" d="M246.84,156.88a4,4,0,0,0,4,4h33.54a4,4,0,0,0,4-4V78a4,4,0,0,0-4-4H193.63a4,4,0,0,0-4,4V111.5a4,4,0,0,0,4,4h53.21Z"/><path class="cls-1" d="M398.69,74H308a4,4,0,0,0-4,4v98.6H250.8a4,4,0,0,0-4,4v33.54a4,4,0,0,0,4,3.95h90.72a4,4,0,0,0,4-3.95h0V115.45h53.22a4,4,0,0,0,3.95-4V78A4,4,0,0,0,398.69,74Z"/><path class="cls-2" d="M381.91,83.94a10.8,10.8,0,0,0-10.37,7.85h-46.8a2.94,2.94,0,0,0-2.94,2.94v99.6H277.73a10.79,10.79,0,1,0,0,5.89h47a3,3,0,0,0,2.95-2.95V97.68h43.85a10.79,10.79,0,1,0,10.37-13.74ZM267.37,203.33a6.06,6.06,0,1,1,6.05-6.06A6.06,6.06,0,0,1,267.37,203.33ZM381.91,100.79A6.06,6.06,0,1,1,388,94.73,6.06,6.06,0,0,1,381.91,100.79Z"/><path class="cls-2" d="M270.52,129.72v-35a2.94,2.94,0,0,0-2.95-2.94H220.94a10.79,10.79,0,1,0,0,5.89h43.69v32a10.79,10.79,0,1,0,5.89,0Zm-59.95-28.93a6.06,6.06,0,1,1,6.06-6.06A6.07,6.07,0,0,1,210.57,100.79Zm57,45.35a6.06,6.06,0,1,1,6.06-6.06A6.07,6.07,0,0,1,267.57,146.14Z"/><path class="cls-2" d="M101.62,274.49H80.06v60.09H72.32V274.49H50.66V267h51Z"/><path class="cls-2" d="M147.76,313.12H109.12c1.19,9.44,7.15,15.4,16.09,15.4a17.78,17.78,0,0,0,15.49-8.35l6.16,3.58c-4.27,7.15-12.61,11.82-21.65,11.82-14.4,0-23.74-11.52-23.74-25.83s9.54-25.82,23.74-25.82c10.93,0,21.06,6.75,22.55,21.55A33.72,33.72,0,0,1,147.76,313.12Zm-38.64-6.75h31.29c-.1-9.74-7.06-15.4-15.4-15.4C116.07,291,110.21,297.13,109.12,306.37Z"/><path class="cls-2" d="M204.47,323.75a26.28,26.28,0,0,1-21.85,11.82c-14.4,0-24.93-11.52-24.93-25.92s10.53-25.93,24.93-25.93a26.28,26.28,0,0,1,21.85,11.82l-6.16,3.68a18.59,18.59,0,0,0-15.59-8.45c-10.13,0-17.58,8.25-17.58,18.88s7.45,18.87,17.58,18.87a18.83,18.83,0,0,0,15.59-8.45Z"/><path class="cls-2" d="M259.7,305.28v29.3h-7.35v-28c0-9.74-6.16-15.8-13.81-15.8-8.74,0-14.7,7.65-14.7,16.09v27.72h-7.35V265.05h7.35v28.21a19.2,19.2,0,0,1,16.49-9.44C251.06,283.82,259.7,292.46,259.7,305.28Z"/><path class="cls-2" d="M298.47,336.17c-13.71,0-24.14-7.06-26.23-17.19l7.45-2.68c1.79,7.25,9,12.42,19.27,12.42,9.94,0,16.89-5.07,16.89-12.22,0-8.05-8.74-10.13-18.77-12.22-9.44-2.08-22-6.06-22-19.27,0-11.72,9.74-19.56,23.45-19.56,12.71,0,22.24,6.75,24.43,17.18l-7.45,2.68C314,278.36,307.8,273,298.27,273c-8.74,0-15.3,4.56-15.3,11.52,0,7.94,8.25,10.43,16.49,12.31,10.73,2.49,24.14,5.76,24.14,19.17C323.6,327.72,313.27,336.17,298.47,336.17Z"/><path class="cls-2" d="M410.63,305v29.6h-7.35V306.47c0-9.14-5.16-15.7-12.61-15.7s-12.61,6.56-12.61,15.7v28.11h-7.35V306.47c0-9.14-5.07-15.7-12.62-15.7-7.35,0-12.51,6.56-12.51,15.7v28.11h-7.35V284.91h7.35v7.55a16.12,16.12,0,0,1,14.3-8.64c7.05,0,12.91,4.17,15.89,10.53,3-5.46,8.94-10.53,16.69-10.53C402.89,283.82,410.63,293,410.63,305Z"/><path class="cls-2" d="M463.66,304.28v30.3h-7.35v-8.05c-3.08,5.07-9.83,9-17.48,9-9.14,0-16.29-5.76-16.29-14.5,0-8.54,6.95-13.41,16-15.2l17.68-3.57c-.79-6.46-5.07-11.72-12.32-11.72a16.74,16.74,0,0,0-13.9,7.84l-6-4.17a24,24,0,0,1,19.37-10.43C455.32,283.82,463.66,292,463.66,304.28Zm-7.35,10.43v-5.86l-16.39,3.38c-5.66,1.29-10,4.07-10,8.64s4.37,7.85,10.63,7.85C448.76,328.72,456.31,323.05,456.31,314.71Z"/><path class="cls-2" d="M503.23,283.82v7.35c-12.12,0-17.68,7.15-17.68,15.69v27.72H478.2V284.91h7.35v8C488.53,287.79,494.49,283.82,503.23,283.82Z"/><path class="cls-2" d="M528.44,291.67v28.21c0,5.16,2.38,7.64,7.35,7.64h5.86v7.06h-6.26c-9.24,0-14.3-5.07-14.3-14.41v-28.5h-9.54v-6.76h9.54v-13.7l7.35-2.19v15.89h13.21v6.76Z"/></svg>