<svg id="Layer_1" data-name="Layer 1" xmlns="http://www.w3.org/2000/svg" viewBox="0 0 282.3 86.55"><title>pltw</title><path d="M90.51,66.15V20.37h26c5.86,0,10.43,1.25,13.57,3.61h0a12.08,12.08,0,0,1,4.78,10.11h0a12.14,12.14,0,0,1-4.72,10.09h0c-3.1,2.37-7.62,3.63-13.41,3.63H99.21V66.15h-8.7Zm23.42-24.31h0.26c4.22,0,7.25-.73,9.17-2h0a6.43,6.43,0,0,0,2.82-5.7h0a6.38,6.38,0,0,0-2.88-5.72h0c-2-1.31-5.06-2-9.38-2H99.21v15.5h14.71Zm24.74,24.31V20.37h8.7V60.18h30.86v6H138.67Zm77.6-45.78,11.18,36.5,12.79-36.5h9.08l12.62,36.52,11.59-36.52h8.77L266.48,65.83l-0.11.32h-8.75l-13.05-37-13.21,37h-8.76L209.33,26.34H191.52V66.15h-8.7V26.34H163.39v-6h52.87Z" fill="#00447c"/><path d="M74.32,20.36A6.44,6.44,0,0,0,71,17.8,14,14,0,0,0,66.13,17c-8.66,0-22.31,5.07-36.3,13.78A108.63,108.63,0,0,0,8.45,47.88C3.23,53.51.05,58.64,0,62.89a6.16,6.16,0,0,0,.89,3.31,6.44,6.44,0,0,0,3.3,2.56,13.77,13.77,0,0,0,4.73.75,5.13,5.13,0,0,1-.21-2.21A11.5,11.5,0,0,1,5,66.69,4.23,4.23,0,0,1,2.76,65a3.93,3.93,0,0,1-.56-2.14c-0.05-3.08,2.76-8.1,7.86-13.5A106.35,106.35,0,0,1,31,32.69C44.72,24.1,58.27,19.22,66.13,19.24a11.83,11.83,0,0,1,4.11.62,4.24,4.24,0,0,1,2.21,1.67A3.94,3.94,0,0,1,73,23.67c0.05,3.08-2.76,8.1-7.86,13.5a106.46,106.46,0,0,1-20.93,16.7A103.63,103.63,0,0,1,18.7,65.72a5.24,5.24,0,0,1,.48,2.15c7.66-2.14,16.85-6.31,26.2-12.14A108.54,108.54,0,0,0,66.75,38.68c5.23-5.63,8.4-10.76,8.45-15A6.16,6.16,0,0,0,74.32,20.36Z" fill="#c41230"/><path d="M11.19,67.91a2.74,2.74,0,0,0,2.74,2.74h0a2.74,2.74,0,0,0,2.74-2.74h0a2.74,2.74,0,0,0-2.74-2.74h0a2.74,2.74,0,0,0-2.74,2.74h0Z" fill="#00447c"/><path d="M73,57.72a5.26,5.26,0,0,1-1.88,1.2,11.35,11.35,0,0,1,1.35,4.82A4,4,0,0,1,71.81,66C71,67.32,69,68.13,66,68.13c-7.76,0-21.49-5.27-35.26-14.45A106.68,106.68,0,0,1,10.38,36.53C5.45,31,2.73,25.94,2.78,22.82a4,4,0,0,1,.62-2.29c0.84-1.3,2.78-2.11,5.85-2.11,7.76,0,21.49,5.27,35.26,14.46A106.65,106.65,0,0,1,64.83,50l0.46,0.53a5.28,5.28,0,0,1,1.76-1.32l-0.58-.67A108.9,108.9,0,0,0,45.73,31C31.68,21.73,17.88,16.25,9.25,16.22c-3.39,0-6.18.86-7.69,3.09a6.24,6.24,0,0,0-1,3.51c0,4.24,3.1,9.44,8.16,15.17A108.84,108.84,0,0,0,29.47,55.5C43.53,64.82,57.32,70.3,66,70.33c3.39,0,6.18-.86,7.69-3.09a6.22,6.22,0,0,0,1-3.51A14.18,14.18,0,0,0,73,57.72Z" fill="#c41230"/><path d="M48.26,13.12a31.83,31.83,0,0,0-4.49-9.37C42,1.48,40,0,37.6,0s-4.44,1.48-6.16,3.75c-0.27.36-.53,0.74-0.79,1.14a5.21,5.21,0,0,1,2,.94c0.18-.26.36-0.52,0.53-0.75,1.53-2,3-2.89,4.41-2.88S40.49,3.08,42,5.08c2.27,3,4.34,8.21,5.78,14.85a112,112,0,0,1,2.29,23.35c0,11.55-1.51,22-3.92,29.49A29.75,29.75,0,0,1,42,81.47c-1.53,2-3,2.89-4.41,2.88s-2.89-.88-4.41-2.88c-2.27-3-4.34-8.21-5.78-14.85a112.06,112.06,0,0,1-2.29-23.35c0-10.85,1.34-20.73,3.5-28.09a5.21,5.21,0,0,1-2.05-.81q-0.71,2.39-1.3,5.09a114.21,114.21,0,0,0-2.35,23.81c0,11.75,1.53,22.38,4,30.16a31.83,31.83,0,0,0,4.49,9.37c1.72,2.27,3.79,3.74,6.16,3.75s4.44-1.48,6.16-3.75c2.6-3.43,4.68-8.89,6.18-15.71a114.16,114.16,0,0,0,2.35-23.82C52.28,31.53,50.76,20.9,48.26,13.12Z" fill="#c41230"/><path d="M26.74,10a2.74,2.74,0,0,0,2.74,2.74h0A2.74,2.74,0,0,0,32.22,10h0a2.74,2.74,0,0,0-2.74-2.74h0A2.74,2.74,0,0,0,26.74,10h0Z" fill="#00447c"/><path d="M43.8,48.89a1.7,1.7,0,0,1-.35-2.12,1.72,1.72,0,0,1,2-.7l1.93,0.56A10.45,10.45,0,0,0,48,42.76l-2,0a1.69,1.69,0,0,1-1.74-1.25,1.71,1.71,0,0,1,.93-1.92l1.77-1a10.46,10.46,0,0,0-2.34-3.14l-1.43,1.4a1.7,1.7,0,0,1-2.12.35,1.72,1.72,0,0,1-.7-2l0.56-1.93A10.42,10.42,0,0,0,37,32.68l0,2a1.7,1.7,0,0,1-1.25,1.74,1.72,1.72,0,0,1-1.93-.93l-1-1.77a10.49,10.49,0,0,0-3.14,2.34l1.4,1.43a1.7,1.7,0,0,1,.35,2.12,1.72,1.72,0,0,1-2,.7l-1.93-.56A10.44,10.44,0,0,0,27,43.62l2,0a1.7,1.7,0,0,1,1.74,1.25,1.72,1.72,0,0,1-.93,1.93l-1.77,1a10.44,10.44,0,0,0,2.34,3.13l1.43-1.4a1.7,1.7,0,0,1,2.12-.35,1.71,1.71,0,0,1,.7,2L34,53.13a10.47,10.47,0,0,0,3.87.57l0-2A1.69,1.69,0,0,1,39.17,50a1.71,1.71,0,0,1,1.92.93l1,1.77a10.43,10.43,0,0,0,3.14-2.34Zm-5.28-1.54a4.29,4.29,0,1,1,3.11-5.21A4.29,4.29,0,0,1,38.52,47.35Z" fill="gray"/><circle cx="69.26" cy="53.99" r="2.74" fill="#00447c"/></svg>