<?xml version="1.0" encoding="utf-8"?>
<!-- Generator: Adobe Illustrator 19.2.1, SVG Export Plug-In . SVG Version: 6.00 Build 0)  -->
<svg version="1.1" id="레이어_1" xmlns="http://www.w3.org/2000/svg" xmlns:xlink="http://www.w3.org/1999/xlink" x="0px"
	 y="0px" viewBox="0 0 797.5 156.2" style="enable-background:new 0 0 797.5 156.2;" xml:space="preserve">
<style type="text/css">
	.st0{fill:#FFFFFF;}
	.st1{fill:#FCC800;}
</style>
<path class="st0" d="M730.5,19.7c-0.3,0.3-0.3,0.7,0,1c0.3,0.3,0.7,0.3,1,0c0.8-0.8,2-1.2,3.1-1.2c1.9,0,3.6,1.2,4.3,3
	c0.1,0.4,0.6,0.6,0.9,0.4c0.4-0.1,0.6-0.6,0.4-0.9c-0.9-2.4-3.1-4-5.7-4C733.1,18,731.7,18.6,730.5,19.7z"/>
<path class="st0" d="M728.3,16.6c-0.3,0.3-0.3,0.7-0.1,1c0.3,0.3,0.7,0.3,1,0.1c1.5-1.3,3.4-2,5.4-2c3.3,0,6.3,2,7.6,5.1
	c0.2,0.4,0.6,0.5,1,0.4c0.4-0.2,0.5-0.6,0.4-1c-1.5-3.6-5.1-6-9-6C732.3,14.3,730.1,15.1,728.3,16.6z"/>
<path class="st0" d="M725.8,13.3c-0.3,0.3-0.4,0.7-0.1,1c0.3,0.3,0.7,0.4,1,0.1c2.2-1.8,5.1-2.9,8-2.9c4.8,0,9.3,2.8,11.3,7.2
	c0.2,0.4,0.6,0.5,1,0.3c0.4-0.2,0.5-0.6,0.3-1c-2.3-4.9-7.3-8-12.7-8C731.4,10.1,728.3,11.2,725.8,13.3z"/>
<path class="st0" d="M750.3,99.9c5.7,2.2,9.2,5.4,9.9,9c0.7,3.4-1.1,7.2-5.2,10.9l2.4,2.6c6.3-5.8,6.9-10.9,6.2-14.2
	c-0.9-4.9-5.2-9-12.1-11.7L750.3,99.9z"/>
<path class="st0" d="M716.7,111.6c0.3,0.9,7.8,21.2,22.4,26.3l1.2-3.4c-12.9-4.5-20.1-23.9-20.2-24.1L716.7,111.6z"/>
<path class="st0" d="M734.1,37.9c-0.2,0.8-1,1.3-1.8,1.1l-0.9-0.2c-0.8-0.2-1.3-1-1.1-1.8l2.9-13.1c0.2-0.8,1-1.3,1.8-1.1l0.9,0.2
	c0.8,0.2,1.3,1,1.1,1.8L734.1,37.9z"/>
<path class="st0" d="M766.7,57.1c2.7,3.4,6.7,9.7,2.9,13.2c-5.1,4.7-22.2,3.3-34.7-8.1l-2.4,2.6c13.1,12,32.7,14.5,39.5,8.1
	c2.5-2.4,5.6-7.8-2.5-18L766.7,57.1z"/>
<path class="st0" d="M686.7,40.7c-1.4,12.6,6.2,24,20.4,30.4l1.5-3.2c-12.7-5.7-19.5-15.7-18.3-26.7c1.1-9.7,8.2-17.9,17.4-19.8
	l-0.7-3.5C696.2,20.1,687.9,29.5,686.7,40.7z"/>
<ellipse transform="matrix(0.2134 -0.977 0.977 0.2134 527.0655 751.3245)" class="st0" cx="730.1" cy="48.3" rx="16.5" ry="17.2"/>
<ellipse transform="matrix(0.2132 -0.977 0.977 0.2132 526.611 738.5574)" class="st1" cx="721.9" cy="42.3" rx="3.2" ry="3.2"/>
<path class="st1" d="M744.2,47.4c0.4-1.8-0.7-3.5-2.5-3.9c-1.8-0.4-3.5,0.7-3.9,2.5c-0.4,1.8,0.7,3.5,2.5,3.9
	C742.1,50.3,743.8,49.2,744.2,47.4z"/>
<path class="st0" d="M713.9,21.8c1.2-3.7-0.8-7.7-4.5-8.9c-3.7-1.2-7.7,0.8-8.9,4.5c-1.2,3.7,0.8,7.7,4.5,8.9
	C708.7,27.5,712.7,25.5,713.9,21.8z"/>
<path class="st0" d="M773.5,56.5c1.2-3.7-0.9-7.7-4.6-8.8c-3.7-1.2-7.7,0.9-8.8,4.6c-1.2,3.7,0.9,7.7,4.6,8.8
	C768.4,62.3,772.4,60.2,773.5,56.5z"/>
<ellipse transform="matrix(0.988 -0.1543 0.1543 0.988 -12.2377 115.5775)" class="st0" cx="738.6" cy="136.6" rx="7" ry="7"/>
<path class="st0" d="M762.6,122.3c1.2-3.7-0.9-7.7-4.6-8.9c-3.7-1.2-7.7,0.9-8.9,4.6c-1.2,3.7,0.9,7.7,4.6,8.9
	C757.4,128.1,761.4,126.1,762.6,122.3z"/>
<path class="st0" d="M727.3,51.3c-20.3,0-36.8,15.1-36.8,33.7c0,18.6,16.5,33.7,36.8,33.7c20.3,0,36.8-15.1,36.8-33.7
	C764.1,66.3,747.7,51.3,727.3,51.3z M697.4,95.5c-0.9,0-1.5-0.7-1.5-1.6c0-0.9,0.7-1.6,1.5-1.6c0.8,0,1.5,0.7,1.5,1.6
	C699,94.8,698.3,95.5,697.4,95.5z M707.1,86.5c-0.8,0-1.5-0.7-1.5-1.6c0-0.9,0.7-1.6,1.5-1.6c0.9,0,1.5,0.7,1.5,1.6
	C708.6,85.8,707.9,86.5,707.1,86.5z M723.7,78.9c-0.8,0-1.5-0.7-1.5-1.6s0.7-1.6,1.5-1.6c0.8,0,1.5,0.7,1.5,1.6
	S724.6,78.9,723.7,78.9z M743.2,78.4c-0.9,0-1.5-0.7-1.5-1.6c0-0.9,0.7-1.6,1.5-1.6c0.8,0,1.5,0.7,1.5,1.6
	C744.8,77.7,744.1,78.4,743.2,78.4z M758.2,82.7c-0.8,0-1.5-0.7-1.5-1.6c0-0.9,0.7-1.6,1.5-1.6c0.8,0,1.5,0.7,1.5,1.6
	C759.7,82,759,82.7,758.2,82.7z"/>
<polygon class="st0" points="401.4,105.9 414,51.4 423.6,51.4 412.7,98.3 455.9,98.3 454.2,105.9 "/>
<polygon class="st0" points="476.3,105.9 488.9,51.4 498.5,51.4 485.9,105.9 "/>
<path class="st0" d="M512.3,105.9l12.6-54.5h6l34.3,36.5c0.8,0.8,1.6,1.8,2.4,3c0.8,1.2,1.7,2.5,2.5,3.9c0.1-1.7,0.3-3.6,0.6-5.5
	c0.3-1.9,0.8-4.5,1.6-7.9l6.9-29.9h8.8l-12.6,54.5h-5.4L535,68c-0.2-0.2-0.4-0.4-0.8-0.8c-1.7-1.9-2.9-3.6-3.6-5.3
	c-0.2,1.7-0.4,3.4-0.7,5.3c-0.3,1.9-0.8,4.1-1.4,6.6l-7.4,32.1H512.3z"/>
<polygon class="st0" points="601.9,105.9 614.5,51.4 624.1,51.4 618.7,74.7 659.9,51.4 673.9,51.4 626.3,77.5 665.8,105.9 
	649.8,105.9 617.2,81.4 611.5,105.9 "/>
<rect x="316.3" y="55" class="st1" width="51.1" height="38"/>
<path class="st0" d="M89.8,82.4c2.8-2,4.8-5.1,5.7-9.2l2.9-12.7c0.3-1.4,0.5-2.7,0.5-3.9c0-2.5-0.7-4.6-2.2-6
	c-2.1-2.1-5.6-3.1-10.7-3.1H35.6l-13.5,58.5h17.3c0,0,4.1-17.9,4.7-20.5h10.1c1.1,1.3,18.3,20.5,18.3,20.5h25
	c0,0-16.6-15.8-21.7-20.5c1.1,0,2.4,0,2.4,0C83.1,85.3,87,84.4,89.8,82.4 M81.1,61.7c0,0.2,0,0.6-0.1,1l-1.5,6.5
	c-0.2,1.1-0.6,1.8-1.2,2.1C77.9,71.6,77,72,74.5,72c0,0-23.1,0-27.3,0c0.7-3,2.1-9.1,2.6-11.1c2.8,0,28.2,0,28.2,0
	c2.5,0,3.1,0.4,3.2,0.4v0C81.1,61.3,81.1,61.4,81.1,61.7z"/>
<path class="st0" d="M194.5,50.8c-2-2.3-5.9-3.5-12.2-3.5h-42.1c-6.1,0-10.4,1-13.1,3.2c-2.8,2.1-4.7,5.9-6,11.3v0l-6.6,28.7
	c-1.3,5.7-1,9.6,1,11.9c2,2.3,5.8,3.4,12.2,3.4h42.1c6.1,0,10.4-1,13.1-3.1c2.8-2.1,4.8-5.8,6-11.3l6.6-28.7
	C196.8,57.1,196.5,53.2,194.5,50.8 M131.7,91.6c0.9-4,6.4-27.8,7-30.4h39.8c-0.9,4-6.4,27.8-7,30.4H131.7z"/>
<path class="st0" d="M285.2,50.5c-2-2.1-5.5-3.1-10.6-3.1H224l-13.5,58.5h48c6,0,10.8-1,14.2-2.9c3.7-2,6-5.2,7-9.4l1.6-7
	c0.3-1.1,0.4-2.2,0.4-3.2c0-2.1-0.6-4-1.8-5.6c-0.6-0.7-1.3-1.4-2.1-1.9c1-0.5,2-0.9,2.8-1.5c2.4-1.8,4-4.3,4.7-7.4l1.5-6.6
	c0.3-1.4,0.5-2.7,0.5-3.9C287.4,54,286.7,52,285.2,50.5 M268,68.7c-0.4,0.2-1.5,0.6-4,0.6c0,0-23.6,0-27.8,0c0.6-2.8,1.6-7.1,2.1-9
	c2.8,0,28.7,0,28.7,0c2.7,0,3.3,0.4,3.3,0.5c0,0,0,0.1,0,0.3c0,0.2,0,0.4-0.1,0.7l-1.2,5.2C268.8,68.2,268.2,68.5,268,68.7
	 M265.3,84.6l-1,4.1c-0.2,0.9-0.6,2.1-1.4,2.6c-0.4,0.3-1.5,0.7-4.2,0.7c0,0-23.6,0-27.8,0c0.7-2.9,1.8-7.9,2.3-9.9
	c2.8,0,28.7,0,28.7,0c2.8,0,3.4,0.5,3.5,0.5c0,0,0.1,0.2,0.1,0.6C265.5,83.5,265.4,83.9,265.3,84.6z"/>
<path class="st0" d="M382.1,50.8c-1.9-2.3-5.9-3.5-12.2-3.5h-42.1c-6.1,0-10.4,1-13.1,3.2c-2.8,2.1-4.7,5.9-6,11.3L302,90.5
	c-1.3,5.7-1,9.6,1,11.9c2,2.3,5.8,3.4,12.2,3.4h42.1c6.1,0,10.4-1,13.1-3.1c2.8-2.1,4.8-5.8,6-11.3l6.6-28.7
	C384.4,57.1,384,53.2,382.1,50.8 M319.2,91.6c0.9-4,6.4-27.8,7-30.4H366c-0.9,4-6.4,27.8-7,30.4H319.2z"/>
</svg>
